<?xml version="1.0" encoding="UTF-8"?>
<svg id="Layer_1" xmlns="http://www.w3.org/2000/svg" version="1.1" viewBox="0 0 900 300">
  <!-- Generator: Adobe Illustrator 29.3.1, SVG Export Plug-In . SVG Version: 2.1.0 Build 151)  -->
  <defs>
    <style>
      .st0 {
        fill: #b2ddfb;
      }

      .st1 {
        fill: #fff;
      }

      .st2 {
        fill: #d1ebfd;
      }

      .st3 {
        fill: #93b2c9;
      }

      .st4 {
        fill: #603813;
      }

      .st5 {
        fill: #b3ddf4;
      }

      .st6 {
        fill: #a3c8d8;
      }

      .st7 {
        fill: #91b3c1;
      }
    </style>
  </defs>
  <rect class="st0" y="-1.8" width="900" height="303.9"/>
  <path class="st2" d="M901.7,300H1.7v-67.2c4.9,3.6,12.5,8.3,22.6,10.3,20.4,4.1,32.2-6.4,52.7-11.1,28-6.4,35.7,6.2,71.5,7.4,37.3,1.2,39.1-13,71.9-13.9,40.9-1.2,47.7,18.8,91.5,26.1,46.5,7.7,48.4-13.2,109.9-13.9,60.9-.7,71.7,19.6,125.8,12.3,35.9-4.9,32.5-14,69.9-21.7,62.3-12.8,92.8,8.3,168.3,12.7,27.3,1.6,66.9,1.3,115.9-8.2v67.2Z"/>
  <g>
    <path class="st1" d="M801.5,84.5c.2.1.6.5.7,1.1,0,.4-.2.7-.4.9-.2.3-.4.6-.8.7-.5.2-.9,0-1-.1-.6-.3-.7-.9-.7-1.1,0-.1,0-.6.2-1,.2-.2.3-.4.7-.6.3-.2.5-.3.7-.3.3,0,.6.2.8.3Z"/>
    <path class="st1" d="M867.8,253.3c-.3.8-1.3,3.1-3.7,3.9-1.5.5-2.8,0-4.2-.4-1.4-.4-2.9-.9-3.9-2.4-1.2-1.8-.8-3.8-.7-4.3.6-2.7,2.9-3.9,3.5-4.2.5-.2,2.2-1,4.3-.5,1.2.3,1.9,1,3.1,2.1,1.1,1,1.7,1.5,2,2.3.4,1.3,0,2.6-.4,3.4Z"/>
    <path class="st1" d="M864.6,37.5c.9,0,3.6,0,5.4,1.9,1.1,1.3,1.3,2.7,1.4,4.2.2,1.6.4,3.2-.7,4.8-1.2,1.9-3.3,2.4-3.9,2.5-2.9.5-5-1.2-5.6-1.7-.4-.4-2-1.7-2.3-4-.2-1.3.1-2.2.7-3.9.5-1.5.7-2.3,1.4-2.9,1.1-1,2.5-1,3.5-1Z"/>
    <path class="st1" d="M667.2,199.5c1.1.8,4.5,3.2,4.8,7.2.2,2.6-.9,4.5-2.1,6.4-1.2,2.1-2.5,4.3-5.2,5.3-3.2,1.2-6.2-.1-7-.5-4-2-5-6-5.3-7.1-.2-.8-.8-3.9.8-6.9.9-1.7,2.2-2.6,4.4-4.1,2-1.4,2.9-2.1,4.4-2.2,2.2-.2,4,1.1,5.2,1.9Z"/>
    <path class="st1" d="M601.7,111.4c.9.4,3.4,1.8,4.1,4.6.4,1.8-.2,3.2-.8,4.7-.6,1.6-1.3,3.2-3.1,4.2-2.1,1.2-4.4.5-4.9.4-3-1-4.1-3.7-4.4-4.4-.2-.6-1-2.6-.1-4.9.5-1.3,1.3-2,2.6-3.3,1.2-1.2,1.8-1.8,2.8-2,1.5-.4,2.9.3,3.8.8Z"/>
    <path class="st1" d="M764,76.2c.3-1.4,1.2-5.6,4.9-7.5,2.3-1.2,4.6-1,6.9-.7,2.5.3,5.1.6,7.2,2.8,2.5,2.6,2.5,6,2.4,6.9-.2,4.6-3.6,7.3-4.5,7.9-.7.5-3.4,2.4-6.9,2.1-2-.2-3.3-1-5.7-2.4-2.1-1.3-3.2-1.9-3.9-3.2-1.1-2-.6-4.2-.3-5.7Z"/>
    <path class="st1" d="M701.2,54.7c0-.4.3-1.6,1.4-2.2.7-.4,1.3-.3,2-.2.7,0,1.5.2,2.1.8.7.7.8,1.7.7,2,0,1.3-1,2.1-1.3,2.3-.2.2-1,.7-2,.6-.6,0-1-.3-1.7-.7-.6-.4-.9-.5-1.2-.9-.3-.6-.2-1.2-.1-1.7Z"/>
    <path class="st1" d="M606.4,24.6c1.2-.7,4.7-2.9,8.5-1.6,2.4.8,3.7,2.6,5.1,4.4,1.4,1.9,3,4,2.8,6.8-.1,3.4-2.5,5.7-3.2,6.2-3.3,2.9-7.5,2.3-8.5,2.1-.8-.2-3.9-.8-6-3.4-1.2-1.5-1.5-3-2.1-5.6-.5-2.3-.8-3.5-.3-4.9.7-2.1,2.5-3.3,3.8-4Z"/>
    <path class="st1" d="M608.1,216.3c-.5,0-2.1-.1-3-1.4-.6-.8-.6-1.6-.6-2.5,0-.9,0-1.9.6-2.8.8-1,2-1.2,2.4-1.2,1.7-.2,2.8.9,3.1,1.2.2.2,1,1.1,1.1,2.4,0,.7-.2,1.3-.6,2.2-.4.8-.5,1.3-1,1.6-.7.5-1.5.5-2.1.4Z"/>
    <path class="st1" d="M538.9,62.1c.5.2,1.9.7,2.4,2.1.3.9.1,1.7,0,2.5-.2.9-.5,1.8-1.3,2.4-1,.8-2.2.6-2.5.5-1.6-.3-2.4-1.6-2.6-2-.1-.3-.7-1.3-.4-2.5.2-.7.5-1.1,1.1-1.9.6-.7.8-1,1.3-1.2.8-.3,1.5,0,2,.2Z"/>
    <path class="st1" d="M353.4,136.2c0,.4-.4,1.6-1.4,2.1-.7.3-1.3.3-1.9.2-.7,0-1.4-.2-2-.8-.7-.7-.7-1.7-.6-1.9,0-1.3,1-2,1.3-2.2.2-.1,1-.7,1.9-.5.6,0,.9.3,1.6.7.6.4.9.6,1.1.9.3.6.2,1.2,0,1.6Z"/>
    <path class="st1" d="M537.1,187.5c-.3.3-1.1,1.1-2.2,1-.7,0-1.2-.5-1.7-.9-.5-.4-1.1-.9-1.2-1.7-.2-1,.3-1.7.5-1.9.7-1,1.9-1.1,2.2-1.1.2,0,1.1,0,1.9.6.4.3.6.7.9,1.4.3.6.4.9.4,1.3,0,.6-.5,1-.8,1.3Z"/>
    <path class="st1" d="M481.1,224.7c.6-.9,2.6-3.7,5.9-4.1,2.1-.2,3.7.7,5.3,1.6,1.7,1,3.6,2,4.4,4.2,1.1,2.6,0,5.1-.3,5.8-1.5,3.3-4.8,4.3-5.7,4.5-.7.2-3.2.7-5.7-.5-1.4-.7-2.2-1.7-3.5-3.5-1.2-1.6-1.8-2.4-1.9-3.6-.2-1.8.8-3.3,1.5-4.3Z"/>
    <path class="st1" d="M533.9,123.1c0-.7-.3-2.7,1-4.1.9-.9,1.9-1.1,3-1.4,1.1-.2,2.4-.5,3.6.1,1.5.8,2,2.3,2.1,2.7.6,2.1-.5,3.8-.8,4.2-.2.3-1.1,1.6-2.7,2-.9.2-1.6,0-2.9-.2-1.1-.2-1.7-.4-2.2-.9-.8-.7-.9-1.8-1-2.5Z"/>
    <path class="st1" d="M484.7,101.3c-.4.1-1.5.4-2.4-.2-.6-.4-.8-.9-1.1-1.5-.3-.6-.5-1.3-.3-2,.3-.9,1.1-1.4,1.3-1.5,1.1-.5,2.2-.1,2.4,0,.2,0,1,.5,1.4,1.3.2.5.2.9.2,1.7,0,.7,0,1-.2,1.3-.3.5-.9.7-1.3.8Z"/>
    <path class="st1" d="M430.7,92.1c-.9.2-3.6.7-5.7-.9-1.3-1-1.8-2.4-2.2-3.9-.5-1.5-1-3.1-.2-4.9.9-2.1,2.8-3,3.4-3.2,2.7-1.1,5.2.2,5.8.6.5.3,2.3,1.4,3,3.5.4,1.2.3,2.2,0,4-.2,1.6-.3,2.4-.9,3.1-.9,1.2-2.3,1.5-3.3,1.7Z"/>
    <path class="st1" d="M422.7,139.6c.4-.1,1.5-.4,2.5.2.6.4.9,1,1.1,1.6.3.7.5,1.3.3,2.1-.3,1-1.1,1.4-1.4,1.5-1.2.6-2.3,0-2.6,0-.2-.1-1-.5-1.4-1.4-.2-.5-.2-1-.2-1.7,0-.7,0-1,.3-1.4.4-.5,1-.7,1.4-.8Z"/>
    <path class="st1" d="M400.8,46.2c-.7-1.5-3-5.9-1.1-10.3,1.2-2.8,3.4-4.2,5.7-5.6,2.4-1.5,5-3.1,8.4-2.7,4.1.5,6.5,3.6,7.1,4.4,3.1,4.2,2,9.1,1.7,10.4-.3,1-1.3,4.6-4.7,6.8-1.9,1.3-3.7,1.5-6.9,2-2.8.4-4.3.6-5.9,0-2.5-1-3.6-3.3-4.4-4.9Z"/>
    <path class="st1" d="M410.8,187.6c1,0,4-.2,5.9,2,1.3,1.4,1.5,2.9,1.7,4.6.2,1.7.5,3.5-.6,5.3-1.3,2.1-3.6,2.7-4.2,2.8-3.1.7-5.5-1.2-6.2-1.7-.5-.4-2.2-1.9-2.6-4.3-.2-1.4,0-2.4.6-4.3.5-1.7.7-2.5,1.5-3.2,1.2-1.1,2.7-1.2,3.8-1.2Z"/>
    <path class="st1" d="M352.3,184.3c-.1-.8-.5-3.2,1-5,1-1.2,2.2-1.5,3.5-1.8,1.4-.4,2.8-.8,4.4,0,1.9.8,2.6,2.6,2.7,3.1.9,2.5-.4,4.6-.7,5.2-.3.4-1.3,2-3.2,2.5-1.1.3-2,.2-3.6,0-1.4-.2-2.1-.3-2.8-.9-1-.8-1.2-2.1-1.4-3Z"/>
    <path class="st1" d="M308,20.7c.8-.7,3.2-3,6.4-2.6,2,.2,3.3,1.4,4.6,2.6,1.4,1.3,2.9,2.6,3.3,4.9.4,2.7-1.1,4.8-1.5,5.4-2.1,2.8-5.5,2.9-6.3,3-.7,0-3.2,0-5.2-1.7-1.2-1-1.7-2.1-2.5-4.1-.8-1.7-1.2-2.6-1-3.8.2-1.8,1.5-2.9,2.3-3.7Z"/>
    <path class="st1" d="M342.2,86.5c-.8-.4-3.1-1.7-3.6-4.3-.3-1.6.2-2.9.8-4.3.6-1.4,1.3-2.9,2.9-3.8,2-1,4-.4,4.5-.2,2.7.9,3.7,3.5,3.9,4.1.2.5.8,2.4,0,4.5-.5,1.2-1.2,1.8-2.5,3-1.1,1-1.7,1.6-2.6,1.8-1.4.3-2.6-.4-3.5-.8Z"/>
    <path class="st1" d="M306.6,223.4c-.2,1.2-.9,4.9-4,6.7-2,1.1-4,1-6,.8-2.2-.2-4.4-.4-6.3-2.2-2.2-2.2-2.3-5.1-2.3-5.9,0-4,3-6.4,3.7-7,.6-.5,2.9-2.1,5.9-2,1.7.1,2.9.8,5,2,1.9,1.1,2.8,1.6,3.5,2.7,1,1.7.7,3.6.4,5Z"/>
    <path class="st1" d="M306.5,232.7c.2,0,.9-.2,1.5.2.4.3.5.6.6,1,.1.4.3.8,0,1.3-.2.6-.7.8-.9.9-.7.3-1.4,0-1.5-.1-.1,0-.6-.3-.8-.9-.1-.3,0-.6,0-1,0-.4,0-.6.2-.8.2-.3.6-.4.8-.5Z"/>
    <path class="st1" d="M208.9,198.8c-.4.6-1.7,2.6-4,2.8-1.4.2-2.5-.4-3.7-1.1-1.2-.7-2.5-1.4-3.1-2.9-.7-1.8,0-3.5.2-4,1-2.3,3.3-3,3.9-3.1.5-.1,2.2-.5,3.9.4,1,.5,1.5,1.2,2.4,2.4.8,1.1,1.2,1.6,1.3,2.5.1,1.3-.5,2.3-1,3Z"/>
    <path class="st1" d="M279.4,131.2c-1.4-.9-5.6-3.5-6.3-8.2-.5-3,.7-5.4,1.9-7.8,1.3-2.6,2.7-5.3,5.8-6.7,3.8-1.7,7.5-.4,8.4,0,4.9,2,6.5,6.8,6.9,8,.3,1,1.3,4.6-.4,8.3-1,2.1-2.4,3.3-4.9,5.3-2.2,1.8-3.3,2.7-5.1,3-2.7.4-4.8-.9-6.4-1.9Z"/>
    <path class="st1" d="M255.2,38.8c-1.1-.2-4.5-.8-6.2-3.6-1.1-1.8-1-3.7-.8-5.6.1-2,.3-4.1,2-5.9,2-2.1,4.7-2.2,5.4-2.2,3.7,0,6,2.6,6.5,3.4.4.6,2,2.6,1.9,5.4,0,1.6-.7,2.7-1.7,4.7-.9,1.8-1.4,2.6-2.5,3.3-1.6,1-3.4.7-4.6.5Z"/>
    <path class="st1" d="M50,41.2c1-.5,4-2,7-.8,1.9.8,2.9,2.3,3.9,3.9,1,1.7,2.1,3.4,1.9,5.7-.3,2.8-2.4,4.4-3,4.9-2.9,2.1-6.2,1.4-7.1,1.2-.7-.2-3.1-.9-4.7-3.1-.9-1.3-1.1-2.5-1.4-4.7-.3-1.9-.4-2.9,0-4,.7-1.7,2.2-2.5,3.3-3Z"/>
    <path class="st1" d="M214.3,81.3c0,0,.3-.1.6,0,.1,0,.2.2.3.3,0,.1.2.3.1.5,0,.2-.2.3-.3.4-.2.2-.5,0-.6,0,0,0-.2,0-.4-.3,0-.1,0-.2,0-.4,0-.2,0-.2,0-.3,0-.1.2-.2.3-.2Z"/>
    <path class="st1" d="M166.1,77.1c0-.7-.3-2.6.9-4,.8-.9,1.9-1.1,2.9-1.4,1.1-.3,2.3-.5,3.6,0,1.5.7,2,2.2,2.1,2.6.6,2-.4,3.7-.7,4.2-.2.3-1.1,1.6-2.7,2-.9.2-1.6,0-2.9-.2-1.1-.2-1.7-.3-2.2-.8-.8-.7-.9-1.7-1-2.4Z"/>
    <path class="st1" d="M37.5,271.2c.4-.7,1.5-2.7,3.7-3.2,1.4-.3,2.5.2,3.7.7,1.2.5,2.6,1.1,3.3,2.5.9,1.7.4,3.5.2,3.9-.8,2.3-3,3.2-3.6,3.4-.5.2-2.1.7-3.9,0-1-.4-1.6-1-2.6-2.2-.9-1-1.4-1.5-1.5-2.3-.3-1.2.3-2.3.7-3Z"/>
    <path class="st1" d="M33.4,189.5c-.4-.9-1.8-3.7-.5-6.4.8-1.7,2.2-2.6,3.7-3.5,1.5-.9,3.2-1.9,5.3-1.6,2.6.4,4,2.3,4.4,2.8,1.9,2.7,1.1,5.7.9,6.5-.2.6-.9,2.8-3,4.2-1.2.8-2.3.9-4.4,1.2-1.8.2-2.7.3-3.7-.1-1.5-.7-2.2-2.1-2.7-3.1Z"/>
  </g>
  <g>
    <rect class="st4" x="54.8" y="216.1" width="26.7" height="82.9"/>
    <polygon class="st3" points="117.1 200.7 92.3 172.1 108.9 172.1 68.2 115.6 27.4 172.1 44 172.1 19.2 200.7 44.1 200.7 19.6 234.8 116.7 234.8 92.2 200.7 117.1 200.7"/>
  </g>
  <g>
    <rect class="st4" x="815.4" y="185.1" width="26.7" height="82.9"/>
    <polygon class="st3" points="877.7 169.7 852.9 141.1 869.5 141.1 828.8 84.6 788 141.1 804.6 141.1 779.8 169.7 804.7 169.7 780.2 203.8 877.3 203.8 852.8 169.7 877.7 169.7"/>
  </g>
  <g>
    <rect class="st4" x="503.8" y="183.5" width="26.7" height="82.9"/>
    <polygon class="st3" points="566.1 168.1 541.3 139.5 558 139.5 517.2 83 476.4 139.5 493 139.5 468.2 168.1 493.2 168.1 468.6 202.2 565.8 202.2 541.2 168.1 566.1 168.1"/>
  </g>
  <g>
    <rect class="st4" x="184.9" y="183.5" width="26.3" height="81.4"/>
    <polygon class="st6" points="250.3 199.1 223.9 170.5 245.1 170.7 221.9 143.2 242.2 143.4 220.7 116.3 233.1 116.3 198 64.3 162.9 116.3 177.7 116.3 153.7 142.5 177.1 142.8 150.9 169.8 175.5 170 145.7 198.2 250.3 199.1"/>
  </g>
  <g>
    <rect class="st4" x="348.3" y="215.4" width="26.3" height="81.4"/>
    <polygon class="st6" points="413.7 231 387.3 202.4 408.5 202.6 385.3 175.1 405.6 175.3 384.1 148.2 396.5 148.2 361.4 96.2 326.3 148.2 341.1 148.2 317.1 174.4 340.5 174.7 314.3 201.7 338.9 201.9 309.1 230.1 413.7 231"/>
  </g>
  <g>
    <rect class="st4" x="659.9" y="183.5" width="26.3" height="81.4"/>
    <polygon class="st7" points="725.3 199.1 698.9 170.5 720 170.7 696.9 143.2 717.2 143.4 695.7 116.3 708.1 116.3 673 64.3 637.9 116.3 652.6 116.3 628.7 142.5 652.1 142.8 625.9 169.8 650.5 170 620.7 198.2 725.3 199.1"/>
  </g>
  <path class="st5" d="M901.7,300H1.7v-50.8c11,5.9,28.2,13.4,50,16.3,40.4,5.4,61.5-9.9,99.7-15.5,43.6-6.4,53.6,8,114.4,15.1,53,6.1,56.6-3.5,140.9-6.1,119.4-3.7,124.6,15.3,210.4,4.5,73-9.2,74.6-23.6,116.4-17.6,47.7,6.8,79.8,30.5,129.1,19.2,17.4-4,30.8-10.9,39.1-15.9v50.8Z"/>
</svg>